<svg version="1.1" id="Layer_1" xmlns="http://www.w3.org/2000/svg" xmlns:xlink="http://www.w3.org/1999/xlink" x="0px" y="0px"
	 width="100%" viewBox="0 0 1024 1024" enable-background="new 0 0 1024 1024" xml:space="preserve">
<path fill="#000000" opacity="1.000000" stroke="none" 
	d="
M736.579468,671.597839 
	C718.260437,688.382568 696.400085,696.939331 672.767273,701.153870 
	C643.804932,706.318726 614.543640,707.001282 585.193176,705.566345 
	C576.046082,705.119141 566.863037,705.457886 557.698730,705.302979 
	C540.879883,705.018677 524.061951,704.667786 507.245941,704.250916 
	C505.163544,704.199280 502.155823,705.207886 502.017487,701.420410 
	C501.853088,696.920288 504.361267,692.835571 507.583679,692.825195 
	C515.080811,692.801025 522.579590,693.011719 530.076355,693.188354 
	C557.887695,693.843384 585.692444,694.310852 613.504211,692.952698 
	C627.022888,692.292542 640.451538,691.036499 653.226074,686.438965 
	C688.134277,673.875488 708.609253,648.464539 715.529541,612.639221 
	C726.651184,555.064087 690.214111,497.113251 627.600159,483.351044 
	C613.277466,480.203003 598.817566,478.310822 584.107666,478.204926 
	C580.097778,478.176056 578.080750,479.505096 576.643433,483.113953 
	C566.970215,507.402008 556.967346,531.559937 547.425598,555.898865 
	C530.590637,598.841309 514.021240,641.887756 497.290985,684.871338 
	C496.246277,687.555481 495.714813,690.604309 493.344299,692.567688 
	C491.360321,691.896057 491.190674,690.257629 490.590759,688.951172 
	C453.058716,607.211670 415.490631,525.488770 378.027191,443.717865 
	C358.394928,400.866760 339.007172,357.903595 319.374969,315.052460 
	C314.416504,304.229614 308.260590,294.171173 298.512573,286.788910 
	C291.542511,281.510437 283.936737,278.143646 275.038116,278.284668 
	C271.869995,278.334869 269.414307,277.825409 269.649231,273.686523 
	C269.803406,270.970642 270.845673,269.718567 273.576294,269.763550 
	C276.741699,269.815765 279.909119,269.736023 283.075653,269.734985 
	C319.908936,269.722900 356.742218,269.714386 393.575500,269.707458 
	C395.075317,269.707184 396.575165,269.730652 398.074982,269.745544 
	C400.140717,269.766022 401.606659,270.522705 401.959747,272.776184 
	C402.367737,275.380096 400.747986,276.510529 398.662933,276.941986 
	C395.735748,277.547729 392.751465,277.915833 389.775940,278.243225 
	C375.054260,279.863068 368.161591,289.869415 370.842865,304.553162 
	C373.894257,321.263702 382.357910,335.725494 389.244141,350.811340 
	C416.633545,410.814087 444.351654,470.666718 471.887177,530.602905 
	C483.567719,556.027771 495.083588,581.528198 506.728302,606.969666 
	C507.525848,608.712158 507.984863,610.808289 510.922852,612.186829 
	C528.788330,567.192383 546.611572,522.304382 564.482239,477.296936 
	C560.451599,474.637299 556.206177,474.365265 552.286011,473.271606 
	C539.851746,469.802551 531.136475,462.393860 526.672119,450.150757 
	C525.791016,447.734314 525.327271,445.324615 525.988647,442.820587 
	C526.379395,441.341003 527.112610,439.873749 528.725403,439.526031 
	C530.674500,439.105865 531.236023,440.859955 531.846130,442.160187 
	C535.705688,450.385071 541.108093,457.194183 549.426453,461.274780 
	C554.068665,463.552032 558.872253,465.261902 564.118347,465.810852 
	C568.368835,466.255646 570.350159,464.537964 571.884644,460.697571 
	C579.918091,440.593201 588.364014,420.653290 596.361267,400.534882 
	C607.684082,372.050262 621.648376,344.685730 632.214539,315.892975 
	C637.663513,301.044373 642.481323,285.960876 649.960999,271.934875 
	C657.055176,258.631958 666.017090,246.885666 679.180054,239.133179 
	C699.771790,227.005463 720.649292,227.693832 741.436890,238.862061 
	C743.126160,239.769623 745.445679,240.733688 744.840820,243.203949 
	C744.174500,245.924805 741.754700,246.487320 739.260315,246.300186 
	C715.187744,244.494385 697.843445,256.624023 682.279907,273.149139 
	C658.731201,298.152618 642.429504,327.641815 628.548279,358.632843 
	C613.365295,392.530151 599.486511,426.983734 585.567139,461.414825 
	C584.900757,463.063171 583.803467,464.661774 584.210876,467.421295 
	C589.480225,467.130646 594.862915,467.117188 600.174500,466.495667 
	C640.489014,461.778564 667.211243,431.472198 672.442810,395.839691 
	C676.026489,371.430481 671.643066,348.098328 660.634521,326.075928 
	C658.913757,322.633484 658.816528,320.062347 661.187561,316.990479 
	C665.866760,310.928162 670.373169,304.724365 674.739380,298.432190 
	C676.811157,295.446625 678.385559,295.023895 681.449585,297.477722 
	C703.799316,315.376465 716.388489,338.496490 719.389343,366.934082 
	C722.644897,397.784973 713.021973,424.032135 691.052307,445.736481 
	C677.607178,459.019257 660.997009,466.353912 642.742615,470.327209 
	C641.280334,470.645508 639.811768,470.945679 638.370239,471.341827 
	C637.962402,471.453888 637.639832,471.876190 636.387817,472.845367 
	C642.136597,473.891205 647.068420,474.758026 651.988220,475.688599 
	C676.915222,480.403412 700.835815,487.824921 721.637329,502.948303 
	C748.326904,522.352539 764.029175,548.504578 768.347351,581.265869 
	C772.491028,612.703308 764.378540,640.620789 743.571228,664.686707 
	C741.510803,667.069763 739.097107,669.147400 736.579468,671.597839 
z"/>
<path fill="#000000" opacity="1.000000" stroke="none" 
	d="
M513.315918,533.000122 
	C513.316528,550.728943 513.316528,567.957825 513.316528,585.227417 
	C510.221161,585.289917 510.078278,583.466736 509.514923,582.261414 
	C497.598480,556.764221 486.199463,531.010437 473.640228,505.835114 
	C467.968048,494.465088 466.715240,483.042419 466.580719,470.718018 
	C466.018738,419.244568 465.808319,367.771362 465.615997,316.296478 
	C465.586212,308.323944 464.668091,300.310333 460.847748,293.039673 
	C456.364258,284.506958 449.486267,279.313477 439.713318,278.278931 
	C437.400604,278.034119 435.116302,277.511292 432.802277,277.291077 
	C430.072632,277.031342 429.700928,275.271942 429.768097,273.065796 
	C429.838837,270.743896 431.141022,269.838409 433.301666,269.821167 
	C435.634186,269.802551 437.966675,269.749634 440.299164,269.749084 
	C484.454834,269.738586 528.610596,269.669861 572.766113,269.756958 
	C592.087708,269.795074 611.234070,271.871796 630.170593,275.722412 
	C635.898987,276.887238 636.178101,277.580017 634.236877,283.101532 
	C629.923157,295.370758 629.913269,295.400269 617.751587,291.314484 
	C600.267578,285.440582 582.238770,283.113037 563.876770,282.184875 
	C549.223145,281.444183 534.583862,281.320099 519.929565,281.328003 
	C513.339539,281.331573 513.318359,281.348816 513.317932,288.060608 
	C513.313171,369.540436 513.315063,451.020233 513.315918,533.000122 
z"/>
</svg>